<?xml version="1.0" encoding="UTF-8" standalone="no"?>
<!-- Created with Inkscape (http://www.inkscape.org/) -->

<svg
   xmlns:dc="http://purl.org/dc/elements/1.1/"
   xmlns:cc="http://creativecommons.org/ns#"
   xmlns:rdf="http://www.w3.org/1999/02/22-rdf-syntax-ns#"
   xmlns:svg="http://www.w3.org/2000/svg"
   xmlns="http://www.w3.org/2000/svg"
   xmlns:sodipodi="http://sodipodi.sourceforge.net/DTD/sodipodi-0.dtd"
   xmlns:inkscape="http://www.inkscape.org/namespaces/inkscape"
   width="476.0878"
   height="523.875"
   viewBox="0 0 476.0878 523.87501"
   id="svg4193"
   version="1.1"
   inkscape:version="0.91 r13725"
   sodipodi:docname="siridb_logo.svg">
  <defs
     id="defs4195" />
  <sodipodi:namedview
     id="base"
     pagecolor="#ffffff"
     bordercolor="#666666"
     borderopacity="1.0"
     inkscape:pageopacity="0.0"
     inkscape:pageshadow="2"
     inkscape:zoom="1.4"
     inkscape:cx="216.13463"
     inkscape:cy="237.35137"
     inkscape:document-units="px"
     inkscape:current-layer="layer1"
     showgrid="false"
     inkscape:window-width="1920"
     inkscape:window-height="1031"
     inkscape:window-x="0"
     inkscape:window-y="0"
     inkscape:window-maximized="1"
     units="px"
     fit-margin-top="0"
     fit-margin-left="0"
     fit-margin-right="0"
     fit-margin-bottom="0" />
  <metadata
     id="metadata4198">
    <rdf:RDF>
      <cc:Work
         rdf:about="">
        <dc:format>image/svg+xml</dc:format>
        <dc:type
           rdf:resource="http://purl.org/dc/dcmitype/StillImage" />
        <dc:title></dc:title>
      </cc:Work>
    </rdf:RDF>
  </metadata>
  <g
     inkscape:label="Layer 1"
     inkscape:groupmode="layer"
     id="layer1"
     transform="translate(-143.12163,-215.42473)">
    <path
       style="display:inline;fill:#316376;fill-opacity:1;stroke:#00002a;stroke-width:0;stroke-linecap:butt;stroke-linejoin:miter;stroke-miterlimit:0;stroke-dasharray:none;stroke-opacity:0.94117647"
       d="m 381.21328,215.42473 c -171.57125,0 -238.09165,82.36034 -238.09165,82.36034 l 0,82.47303 c 0,0 68.88529,82.47301 238.09165,82.47301 169.3483,0 237.96934,-82.47301 237.96934,-82.47301 l 0,-82.47303 c 0,0 -69.19523,-82.36034 -237.96934,-82.36034 z m 77.52959,12.05547 -19.32126,66.47416 c 1.42687,1.40201 2.50995,2.87794 3.30174,4.39405 0.0235,0.0458 0.099,0.0665 0.12202,0.11231 l 111.89204,58.70007 -155.40428,-21.94738 c -9.04998,0.60955 -9.37899,0.6531 -20.32126,0.6531 -35.92842,0 -64.97408,-12.39987 -65.05637,-28.95394 -0.0665,-13.40255 20.76443,-25.2302 48.79227,-28.05605 z"
       id="path4037"
       inkscape:connector-curvature="0"
       sodipodi:nodetypes="sccsccsccccccsscc"
       inkscape:export-filename="/home/joente/Pictures/path4051.png"
       inkscape:export-xdpi="23.66"
       inkscape:export-ydpi="23.66" />
    <path
       sodipodi:nodetypes="ccsccsc"
       inkscape:connector-curvature="0"
       id="path4039"
       d="m 143.16303,431.29704 0,89.66595 c 0,0 68.81684,82.45518 238.02321,82.45518 169.34829,0 238.02318,-82.45518 238.02318,-82.45518 l 0,-89.66595 c 0,0 -69.24905,76.18147 -238.02318,76.18147 -171.57125,0 -238.02321,-76.18147 -238.02321,-76.18147 z"
       style="display:inline;fill:#316376;fill-opacity:1;stroke:#00002a;stroke-width:0;stroke-linecap:butt;stroke-linejoin:miter;stroke-miterlimit:0;stroke-dasharray:none;stroke-opacity:0.94117647"
       inkscape:export-filename="/home/joente/Pictures/path4051.png"
       inkscape:export-xdpi="23.66"
       inkscape:export-ydpi="23.66" />
    <path
       style="display:inline;fill:#316376;fill-opacity:1;stroke:none"
       d="m 143.16303,567.16879 0,89.66592 c 0,0 68.81684,82.45517 238.02321,82.45517 169.34829,0 238.02318,-82.45517 238.02318,-82.45517 l 0,-89.66592 c 0,0 -69.24905,76.18143 -238.02318,76.18143 -171.57125,0 -238.02321,-76.18143 -238.02321,-76.18143 z"
       id="path4041"
       inkscape:connector-curvature="0"
       sodipodi:nodetypes="ccsccsc"
       inkscape:export-filename="/home/joente/Pictures/path4051.png"
       inkscape:export-xdpi="23.66"
       inkscape:export-ydpi="23.66" />
    <path
       inkscape:connector-curvature="0"
       id="path4043"
       d="m 619.18262,301.02521 c -39.96809,3.21441 -78.27694,13.5954 -114.09319,30.08247 l 49.64824,26.047 -78.63012,-11.12807 -0.12218,0 c -48.46353,27.92674 -91.21404,67.59435 -125.71043,115.80524 9.91334,0.61892 20.22942,0.85601 30.93847,0.85601 169.34829,0 237.96932,-82.42105 237.96932,-82.42105 l 0,-79.2416 z"
       style="display:inline;fill:#ffffff;fill-opacity:0.10588235;stroke:none"
       inkscape:export-filename="/home/joente/Pictures/path4051.png"
       inkscape:export-xdpi="23.66"
       inkscape:export-ydpi="23.66" />
    <path
       inkscape:connector-curvature="0"
       id="path4049"
       d="m 619.18262,567.12046 c 0,0 -69.19523,76.18441 -237.96934,76.18441 -41.87666,0 -77.45329,-4.51125 -107.36748,-11.37264 -5.75912,24.40379 -9.858,49.74157 -12.10635,75.69529 -0.45103,5.20663 -0.80208,10.34857 -1.10057,15.53038 32.57008,9.51181 72.55669,16.14181 120.5744,16.14181 169.3483,0 237.96934,-82.42105 237.96934,-82.42105 l 0,-89.7582 z"
       style="display:inline;fill:#ffffff;fill-opacity:0.10588235;stroke:none"
       inkscape:export-filename="/home/joente/Pictures/path4051.png"
       inkscape:export-xdpi="23.66"
       inkscape:export-ydpi="23.66" />
    <path
       inkscape:connector-curvature="0"
       id="path4051"
       d="m 619.18262,431.26025 c 0,0 -69.19523,76.18444 -237.96934,76.18444 -20.88758,0 -40.24471,-1.07385 -58.08605,-3.05716 -15.4986,27.672 -28.401,57.47024 -38.52022,89.02451 27.65328,6.11804 59.75654,10.02749 96.60627,10.02749 169.3483,0 237.96934,-82.42105 237.96934,-82.42105 l 0,-89.75823 z"
       style="display:inline;fill:#ffffff;fill-opacity:0.10588235;stroke:none"
       inkscape:export-xdpi="23.66"
       inkscape:export-ydpi="23.66" />
  </g>
</svg>
